<svg width="16" height="16" viewBox="0 0 16 16" fill="none" xmlns="http://www.w3.org/2000/svg">
<path d="M8.34322 0.593018L10.6961 5.36041L15.9572 6.1249L12.1502 9.8358L13.0489 15.0757L8.34322 12.6017L3.63752 15.0757L4.53623 9.8358L0.729235 6.1249L5.99037 5.36041L8.34322 0.593018Z" fill="white" fill-opacity="0.6"/>
<path d="M8.34322 1.15791L10.4719 5.47105L10.53 5.58891L10.6601 5.60781L15.42 6.29946L11.9757 9.65678L11.8816 9.74852L11.9038 9.87806L12.7169 14.6187L8.45955 12.3805L8.34322 12.3193L8.22688 12.3805L3.96955 14.6187L4.78263 9.87806L4.80485 9.74852L4.71073 9.65678L1.26648 6.29946L6.02632 5.60781L6.15638 5.58891L6.21455 5.47105L8.34322 1.15791Z" stroke="white" stroke-opacity="0.8" stroke-width="0.5"/>
</svg>
